<svg width="800" height="800" viewBox="0 0 24 24" data-name="Flat Line"
  xmlns="http://www.w3.org/2000/svg" class="icon flat-line">
  <style>
    .primary-fill { fill: #2ca9bc; }
    .primary-stroke { stroke: #000000; }
    
    @media (prefers-color-scheme: dark) {
      .primary-fill { fill: #3dd5eb; }
      .primary-stroke { stroke: #ffffff; }
    }
  </style>

  <path d="M18 3v3h3l-3 3h-3V6Zm-5 11a3 3 0 1 0-3 3 3 3 0 0 0 3-3" class="primary-fill" style="stroke-width:2"/>
  <path d="m15 9-2.8 2.8M15 6v3h3l3-3h-3V3Z" style="fill:none" class="primary-stroke" stroke-linecap="round" stroke-linejoin="round" stroke-width="2"/>
  <path data-name="primary" d="M16.92 13a5.6 5.6 0 0 1 .08 1 7 7 0 1 1-7-7 5.6 5.6 0 0 1 1 .08" style="fill:none" class="primary-stroke" stroke-linecap="round" stroke-linejoin="round" stroke-width="2"/>
  <circle data-name="primary" cx="10" cy="14" r="3" style="fill:none" class="primary-stroke" stroke-linecap="round" stroke-linejoin="round" stroke-width="2"/>
</svg>